#!OML:ASF F:\VICON\USERDATA\INSTALL\rory3\rory3.ASF
:FULLY-SPECIFIED
:DEGREES
34
root 0.4015222931810961 18.00128034032096 -2.478489052022205 -1.7960625464404902 -5.920653378066199 -0.801257004568662
lfemur 5.203091120290367 -1.1675633276015374 -18.083991628286718
ltibia 52.022381995820574
lfoot -0.05468046544200522 -3.351770964421479
ltoes -11.05817950460107
rfemur -22.843205431411825 3.3985840285014013 25.97724840285086
rtibia 17.732923907204512
rfoot -9.22498443621369 -9.327662686912664
rtoes -8.649847995941283
lowerback 11.155291926577936 -0.6062681687312461 -1.408657854026262
upperback 0.044941053469448156 -0.736732257024693 2.1899167385655907
thorax -6.175017220736697 -0.26569460110018506 3.3160819135546333
lowerneck -16.484885202022195 -3.687036316542439 -1.530538250866444
upperneck 20.700858582711966 -5.244202370494664 1.6135046607982388
head 9.227562335014545 -2.3742081998200346 0.08524281914672546
lclavicle -2.7003079518346044e-15 -2.151714706261164e-15
lhumerus -33.007444324831084 6.755897529176688 82.50722946601707
lradius 20.501774930114227
lwrist 11.293617275925603
lhand -29.55817016268427 17.83824019275847
lfingers 7.125020000000001
lthumb -2.830051106029639 48.304024965438
rclavicle -2.700307951759483e-15 -2.1517147062094598e-15
rhumerus -32.134147188444736 -21.62927222765273 -73.02994670662619
rradius 26.62458807699097
rwrist 4.717708549389586
rhand -18.265040474332928 23.20245322815373
rfingers 7.125020000000001
rthumb 7.834581995678257 -5.936948519604677
35
root 0.4275999621878914 18.004085962804922 -0.39969285934310683 -1.637749031186287 -5.4492597769205116 -2.114395599542097
lfemur 3.3414278750920534 -0.9784592663693816 -16.629741910831108
ltibia 53.84185968889358
lfoot -0.8622477229167069 -3.1361682967514195
ltoes -10.888707286677626
rfemur -21.752565117582275 4.059456240470437 27.11597175470436
rtibia 15.947006957199626
rfoot -5.777982075020464 -8.764797272288131
rtoes -6.3785035466196796
lowerback 11.178554972717402 -0.4815870788935948 -0.23890005564244665
upperback 0.02729493755500864 -0.39232353831783945 2.351618251923927
thorax -6.18596148990145 -0.11123123189930437 2.9581909346598523
lowerneck -16.399586327051242 -3.666320681115044 -1.5012771413118162
upperneck 20.740647803539595 -5.196906974730836 1.6721940231396988
head 9.23512402509763 -2.3528298602853446 0.13510964162573996
lclavicle -2.700307951827051e-15 -2.1517147062561103e-15
lhumerus -33.96225346508278 7.288186566651184 82.52874214681897
lradius 20.635060733129748
lwrist 11.416977465351184
lhand -29.401285697151074 18.01631539733636
lfingers 7.125020000000001
lthumb -2.6438161750472706 48.536449028749594
rclavicle -2.7003079517697655e-15 -2.151714706216514e-15
rhumerus -31.409153083906542 -20.996211716265858 -73.38458407080515
rradius 27.146778883268496
rwrist 5.300032249910146
rhand -18.170810697984262 23.0367942415834
rfingers 7.125020000000001
rthumb 7.9665548335421015 -6.161800537010557
36
root 0.44034813447666 17.977921779838983 0.3727865435648017 -1.95478777754232 -5.380912944602851 -2.8629946335819665
lfemur 0.9357737891636422 -0.5246284693179408 -15.340252100279976
ltibia 55.94529225195174
lfoot -1.7100586642256772 -2.900790465948142
ltoes -11.409299492457134
rfemur -20.575698820309427 4.557576113908201 28.057554474890676
rtibia 15.261065079174152
rfoot -2.583635117340216 -8.359528672081927
rtoes -1.5532111195676328
lowerback 11.288947452806847 -0.3241580915455918 0.28751759881991307
upperback 0.053109223501473346 -0.1325260700123339 2.4075739287085782
thorax -6.159280690855989 0.02538913959860903 2.7193499940078345
lowerneck -16.327261599770072 -3.65423113786928 -1.5133833754462882
upperneck 20.902651476261656 -5.175764349687894 1.7690345306497504
head 9.276035594123776 -2.346776042981112 0.18512480462206343
lclavicle -2.7003079518297552e-15 -2.1517147062579937e-15
lhumerus -34.434324852803 7.769096686358303 82.67128049557377
lradius 21.034305453218238
lwrist 11.440976256188325
lhand -29.393335157248895 17.213073249755205
lfingers 7.125020000000001
lthumb -2.7849153820673873 47.36538007100553
rclavicle -2.7003079517640254e-15 -2.1517147062127513e-15
rhumerus -30.579584937281492 -20.120856496000226 -73.93214524623158
rradius 27.390442283090046
rwrist 4.973083004730156
rhand -18.10249890797348 22.772341419499295
rfingers 7.125020000000001
rthumb 8.088797690282732 -6.586640725285113
37
root 0.45876388899931236 17.93828373890519 1.6316118331485114 -2.4781090735270244 -5.3653655115951215 -3.24127503334216
lfemur -1.3891027249696535 0.14910192363830266 -14.07309944349366
ltibia 58.1699582262174
lfoot -2.659435336193667 -2.8770366257758977
ltoes -8.868532393834489
rfemur -19.431502566574142 4.852192495423283 28.75678886748873
rtibia 15.361906656744008
rfoot -0.5897475987257135 -8.222293347662733
rtoes 2.99965292050729
lowerback 11.426595363826918 -0.1045852778413836 0.7792018975162526
upperback 0.18054425157062476 0.20427906555881264 2.4663931821557386
thorax -6.083274862387767 0.20198424731783576 2.5020616104229947
lowerneck -16.416475299962443 -3.650543836467379 -1.5564155049148478
upperneck 21.004499326819822 -5.169640732348844 1.9024302934980035
head 9.368584148916128 -2.333069810594413 0.2442779278487965
lclavicle -2.7003079518199753e-15 -2.151714706251622e-15
lhumerus -34.83345752233682 8.24787431820532 82.70404465887539
lradius 21.356815391307386
lwrist 11.499356116242808
lhand -29.645215525251377 16.936923322662896
lfingers 7.125020000000001
lthumb -3.0789858833918795 46.95662724902621
rclavicle -2.700307951767037e-15 -2.151714706214974e-15
rhumerus -30.299777341968735 -19.420678950138356 -74.11736577129608
rradius 27.334083600638024
rwrist 4.497751476070861
rhand -18.027206526289305 22.603126684136736
rfingers 7.125020000000001
rthumb 8.091772043726735 -7.143885425055192
38
root 0.4869492973990339 17.933730030973155 4.423093112912097 -2.359143850473917 -4.935381658733968 -4.3097840812188775
lfemur -3.8938825410435705 0.7305160093158314 -12.233217947073264
ltibia 60.25543250124666
lfoot -3.5777548391782847 -2.926505253133302
ltoes -6.138365888596045
rfemur -18.093471976779874 5.133379227228378 29.79688556420165
rtibia 14.821770900800598
rfoot 0.2663131945975792 -8.216607661565122
rtoes 4.988545831918078
lowerback 11.479167896756254 0.09642378300276354 1.8706210444228137
upperback 0.16165641634662375 0.7151148383234366 2.5973028231174893
thorax -6.150067699615107 0.4430809679907548 1.9866714243683123
lowerneck -16.44008116626103 -3.640495526607625 -1.5886152433406842
upperneck 20.970591981773147 -5.16288675509902 2.001004159639083
head 9.408738259966624 -2.3257129196074637 0.2764942300425608
lclavicle -2.7003079518160334e-15 -2.151714706249161e-15
lhumerus -35.25268561433049 8.553120392124333 82.73705361297752
lradius 21.666993718398636
lwrist 11.34345464073086
lhand -29.387683876407728 17.46920838467304
lfingers 7.125020000000001
lthumb -2.734542797259865 47.89358042060727
rclavicle -2.7003079517676005e-15 -2.1517147062155285e-15
rhumerus -30.135675830792742 -19.02316386259683 -74.41799122998304
rradius 27.15222903801173
rwrist 4.715597085863306
rhand -18.017228365795862 22.35903430515612
rfingers 7.125020000000001
rthumb 8.178374619387368 -7.510707425908636
39
root 0.5108675885679549 17.92530359494148 5.857153192047515 -2.4912510235815497 -4.726261895576849 -5.033696357193098
lfemur -6.595673197760413 1.1385791696629535 -11.194875374045372
ltibia 61.999586149127545
lfoot -4.723322941832505 -3.2439172275469863
ltoes -5.856211012150927
rfemur -16.906694435829966 5.2874914094768455 30.55568642811532
rtibia 14.531191343098492
rfoot 0.356609313389745 -8.200523384633263
rtoes 8.601779149927845
lowerback 11.547548484395044 0.37057778732771945 2.6106435369438103
upperback 0.12458501080756965 1.2380239420931913 2.7013538405011626
thorax -6.212698595836514 0.6601281688659315 1.3735207599960153
lowerneck -16.36895988761331 -3.6048607421865535 -1.5976933705293723
upperneck 20.98393379831772 -5.108367565471505 2.0788668795150382
head 9.43450191867027 -2.301419922648882 0.3197645625126637
lclavicle -2.700307951821315e-15 -2.151714706252987e-15
lhumerus -35.33104022121964 8.984034749590316 82.82805613947792
lradius 21.85674711865109
lwrist 10.927247587683556
lhand -29.35788042649848 17.597705120891135
lfingers 7.125020000000001
lthumb -2.6179937540709344 48.21143772036474
rclavicle -2.700307951768126e-15 -2.1517147062161537e-15
rhumerus -29.54446576401015 -18.4798592805262 -74.83716847577612
rradius 26.96285074193294
rwrist 5.70547726389319
rhand -17.956071810385453 22.2631833395065
rfingers 7.125020000000001
rthumb 8.263846026928833 -7.61522557346864
